<svg preserveAspectRatio="none" width="100%" height="100%" overflow="visible" style="display: block;" viewBox="0 0 30 15" fill="none" xmlns="http://www.w3.org/2000/svg">
<g id="Container">
<path id="Icon" d="M5 9.40625L8.15625 6.25L5 3.09375L1.84375 6.25L5 9.40625V9.40625M21.875 8.75L25 3.75L28.125 8.75H21.875V8.75M15 7.5C13.9583 7.5 13.0729 7.13542 12.3438 6.40625C11.6146 5.67708 11.25 4.79167 11.25 3.75C11.25 2.6875 11.6146 1.79688 12.3438 1.07812C13.0729 0.359375 13.9583 0 15 0C16.0625 0 16.9531 0.359375 17.6719 1.07812C18.3906 1.79688 18.75 2.6875 18.75 3.75C18.75 4.79167 18.3906 5.67708 17.6719 6.40625C16.9531 7.13542 16.0625 7.5 15 7.5V7.5M15 2.5C14.6458 2.5 14.349 2.61979 14.1094 2.85938C13.8698 3.09896 13.75 3.39583 13.75 3.75C13.75 4.10417 13.8698 4.40104 14.1094 4.64062C14.349 4.88021 14.6458 5 15 5C15.3542 5 15.651 4.88021 15.8906 4.64062C16.1302 4.40104 16.25 4.10417 16.25 3.75C16.25 3.39583 16.1302 3.09896 15.8906 2.85938C15.651 2.61979 15.3542 2.5 15 2.5V2.5M15 3.75V3.75V3.75V3.75V3.75V3.75V3.75V3.75V3.75V3.75M0 15V13.0312C0 12.1146 0.463542 11.3802 1.39062 10.8281C2.31771 10.276 3.52083 10 5 10C5.27083 10 5.53125 10.0052 5.78125 10.0156C6.03125 10.026 6.27083 10.0521 6.5 10.0938C6.20833 10.5104 5.98958 10.9583 5.84375 11.4375C5.69792 11.9167 5.625 12.4271 5.625 12.9688V15H0V15M7.5 15V12.9688C7.5 11.6146 8.19271 10.5208 9.57812 9.6875C10.9635 8.85417 12.7708 8.4375 15 8.4375C17.25 8.4375 19.0625 8.85417 20.4375 9.6875C21.8125 10.5208 22.5 11.6146 22.5 12.9688V15H7.5V15M25 10C26.5 10 27.7083 10.276 28.625 10.8281C29.5417 11.3802 30 12.1146 30 13.0312V15H24.375V12.9688C24.375 12.4271 24.3073 11.9167 24.1719 11.4375C24.0365 10.9583 23.8333 10.5104 23.5625 10.0938C23.7917 10.0521 24.026 10.026 24.2656 10.0156C24.5052 10.0052 24.75 10 25 10V10M15 10.9375C13.8125 10.9375 12.75 11.0938 11.8125 11.4062C10.875 11.7188 10.3229 12.0833 10.1562 12.5V12.5H19.875V12.5C19.6875 12.0833 19.1302 11.7188 18.2031 11.4062C17.276 11.0938 16.2083 10.9375 15 10.9375V10.9375M15 12.5V12.5V12.5V12.5V12.5V12.5V12.5V12.5V12.5" fill="var(--fill-0, #00DBE9)"/>
</g>
</svg>
