<svg preserveAspectRatio="none" width="100%" height="100%" overflow="visible" style="display: block;" viewBox="0 0 266.667 36" fill="none" xmlns="http://www.w3.org/2000/svg">
<g id="Container">
<path id="Icon" d="M8 28H12V18H8V28V28M24 28H28V8H24V28V28M16 28H20V22H16V28V28M16 18H20V14H16V18V18M4 36C2.9 36 1.95833 35.6083 1.175 34.825C0.391667 34.0417 0 33.1 0 32V4C0 2.9 0.391667 1.95833 1.175 1.175C1.95833 0.391667 2.9 0 4 0H32C33.1 0 34.0417 0.391667 34.825 1.175C35.6083 1.95833 36 2.9 36 4V32C36 33.1 35.6083 34.0417 34.825 34.825C34.0417 35.6083 33.1 36 32 36H4V36M4 32H32V32V32V4V4V4H4V4V4V32V32V32V32M4 4V4V4V4V32V32V32V32V32V32V4V4V4V4" fill="var(--fill-0, #4EDEA3)"/>
</g>
</svg>
