<svg preserveAspectRatio="none" width="100%" height="100%" overflow="visible" style="display: block;" viewBox="0 0 96 44" fill="none" xmlns="http://www.w3.org/2000/svg">
<path id="Icon" d="M22 44C15.8667 44 10.6667 41.8667 6.4 37.6C2.13333 33.3333 0 28.1333 0 22C0 15.8667 2.13333 10.6667 6.4 6.4C10.6667 2.13333 15.8667 0 22 0C24.4667 0 26.8333 0.433333 29.1 1.3C31.3667 2.16667 33.4 3.4 35.2 5L42 11.2L36 16.6L29.8 11C28.7333 10.0667 27.5333 9.33333 26.2 8.8C24.8667 8.26667 23.4667 8 22 8C18.1333 8 14.8333 9.36667 12.1 12.1C9.36667 14.8333 8 18.1333 8 22C8 25.8667 9.36667 29.1667 12.1 31.9C14.8333 34.6333 18.1333 36 22 36C23.4667 36 24.8667 35.7333 26.2 35.2C27.5333 34.6667 28.7333 33.9333 29.8 33L60.8 5C62.6 3.4 64.6333 2.16667 66.9 1.3C69.1667 0.433333 71.5333 0 74 0C80.1333 0 85.3333 2.13333 89.6 6.4C93.8667 10.6667 96 15.8667 96 22C96 28.1333 93.8667 33.3333 89.6 37.6C85.3333 41.8667 80.1333 44 74 44C71.5333 44 69.1667 43.5667 66.9 42.7C64.6333 41.8333 62.6 40.6 60.8 39L54 32.8L60 27.4L66.2 33C67.2667 33.9333 68.4667 34.6667 69.8 35.2C71.1333 35.7333 72.5333 36 74 36C77.8667 36 81.1667 34.6333 83.9 31.9C86.6333 29.1667 88 25.8667 88 22C88 18.1333 86.6333 14.8333 83.9 12.1C81.1667 9.36667 77.8667 8 74 8C72.5333 8 71.1333 8.26667 69.8 8.8C68.4667 9.33333 67.2667 10.0667 66.2 11L35.2 39C33.4 40.6 31.3667 41.8333 29.1 42.7C26.8333 43.5667 24.4667 44 22 44V44" fill="var(--fill-0, #00DBE9)"/>
</svg>
