<svg width="11" height="6" viewBox="0 0 11 6" fill="none" xmlns="http://www.w3.org/2000/svg">
<path d="M1.5 6C1.08333 6 0.729167 5.85417 0.4375 5.5625C0.145833 5.27083 0 4.91667 0 4.5V3.5H1.5V4.5H3V0H4.5V4.5C4.5 4.91667 4.35417 5.27083 4.0625 5.5625C3.77083 5.85417 3.41667 6 3 6H1.5ZM7 6C6.71667 6 6.47917 5.90417 6.2875 5.7125C6.09583 5.52083 6 5.28333 6 5V4H7.5V4.5H9.5V3.5H7C6.71667 3.5 6.47917 3.40417 6.2875 3.2125C6.09583 3.02083 6 2.78333 6 2.5V1C6 0.716667 6.09583 0.479167 6.2875 0.2875C6.47917 0.0958333 6.71667 0 7 0H10C10.2833 0 10.5208 0.0958333 10.7125 0.2875C10.9042 0.479167 11 0.716667 11 1V2H9.5V1.5H7.5V2.5H10C10.2833 2.5 10.5208 2.59583 10.7125 2.7875C10.9042 2.97917 11 3.21667 11 3.5V5C11 5.28333 10.9042 5.52083 10.7125 5.7125C10.5208 5.90417 10.2833 6 10 6H7Z" fill="#00DBE9"/>
</svg>
