<svg preserveAspectRatio="none" width="100%" height="100%" overflow="visible" style="display: block;" viewBox="0 0 18 18" fill="none" xmlns="http://www.w3.org/2000/svg">
<g id="Container">
<path id="Icon" d="M6.6 12.6L8 11.175L5.825 9L8 6.825L6.6 5.4L3 9L6.6 12.6V12.6M11.4 12.6L15 9L11.4 5.4L10 6.825L12.175 9L10 11.175L11.4 12.6V12.6M2 18C1.45 18 0.979167 17.8042 0.5875 17.4125C0.195833 17.0208 0 16.55 0 16V2C0 1.45 0.195833 0.979167 0.5875 0.5875C0.979167 0.195833 1.45 0 2 0H16C16.55 0 17.0208 0.195833 17.4125 0.5875C17.8042 0.979167 18 1.45 18 2V16C18 16.55 17.8042 17.0208 17.4125 17.4125C17.0208 17.8042 16.55 18 16 18H2V18M2 16H16V16V16V2V2V2H2V2V2V16V16V16V16M2 2V2V2V2V16V16V16V16V16V16V2V2V2V2" fill="var(--fill-0, #7DF4FF)"/>
</g>
</svg>
