<svg preserveAspectRatio="none" width="100%" height="100%" overflow="visible" style="display: block;" viewBox="0 0 12 14" fill="none" xmlns="http://www.w3.org/2000/svg">
<g id="Container">
<path id="Icon" d="M4 1.33333V0H8V1.33333H4V1.33333M5.33333 8.66667H6.66667V4.66667H5.33333V8.66667V8.66667M6 14C5.17778 14 4.40278 13.8417 3.675 13.525C2.94722 13.2083 2.31111 12.7778 1.76667 12.2333C1.22222 11.6889 0.791667 11.0528 0.475 10.325C0.158333 9.59722 0 8.82222 0 8C0 7.17778 0.158333 6.40278 0.475 5.675C0.791667 4.94722 1.22222 4.31111 1.76667 3.76667C2.31111 3.22222 2.94722 2.79167 3.675 2.475C4.40278 2.15833 5.17778 2 6 2C6.68889 2 7.35 2.11111 7.98333 2.33333C8.61667 2.55556 9.21111 2.87778 9.76667 3.3L10.7 2.36667L11.6333 3.3L10.7 4.23333C11.1222 4.78889 11.4444 5.38333 11.6667 6.01667C11.8889 6.65 12 7.31111 12 8C12 8.82222 11.8417 9.59722 11.525 10.325C11.2083 11.0528 10.7778 11.6889 10.2333 12.2333C9.68889 12.7778 9.05278 13.2083 8.325 13.525C7.59722 13.8417 6.82222 14 6 14V14M6 12.6667C7.28889 12.6667 8.38889 12.2111 9.3 11.3C10.2111 10.3889 10.6667 9.28889 10.6667 8C10.6667 6.71111 10.2111 5.61111 9.3 4.7C8.38889 3.78889 7.28889 3.33333 6 3.33333C4.71111 3.33333 3.61111 3.78889 2.7 4.7C1.78889 5.61111 1.33333 6.71111 1.33333 8C1.33333 9.28889 1.78889 10.3889 2.7 11.3C3.61111 12.2111 4.71111 12.6667 6 12.6667V12.6667M6 8V8V8V8V8V8V8V8V8V8" fill="var(--fill-0, #DAE2FD)"/>
</g>
</svg>
