<svg preserveAspectRatio="none" width="100%" height="100%" overflow="visible" style="display: block;" viewBox="0 0 36 36" fill="none" xmlns="http://www.w3.org/2000/svg">
<g id="Overlay">
<rect width="36" height="36" rx="2" fill="var(--fill-0, #4EDEA3)" fill-opacity="0.1"/>
<path id="Icon" d="M28 28L24 24H14C13.45 24 12.9792 23.8042 12.5875 23.4125C12.1958 23.0208 12 22.55 12 22V21H23C23.55 21 24.0208 20.8042 24.4125 20.4125C24.8042 20.0208 25 19.55 25 19V12H26C26.55 12 27.0208 12.1958 27.4125 12.5875C27.8042 12.9792 28 13.45 28 14V28V28M10 18.175L11.175 17H21V17V17V10V10V10H10V10V10V18.175V18.175M8 23V10C8 9.45 8.19583 8.97917 8.5875 8.5875C8.97917 8.19583 9.45 8 10 8H21C21.55 8 22.0208 8.19583 22.4125 8.5875C22.8042 8.97917 23 9.45 23 10V17C23 17.55 22.8042 18.0208 22.4125 18.4125C22.0208 18.8042 21.55 19 21 19H12L8 23V23M10 17V10V10V10V10V10V10V17V17V17V17V17V17" fill="var(--fill-0, #4EDEA3)"/>
</g>
</svg>
