<svg preserveAspectRatio="none" width="100%" height="100%" overflow="visible" style="display: block;" viewBox="0 0 15 15" fill="none" xmlns="http://www.w3.org/2000/svg">
<g id="Container">
<path id="Icon" d="M3.33333 11.6667H9.16667V10H3.33333V11.6667V11.6667M3.33333 8.33333H11.6667V6.66667H3.33333V8.33333V8.33333M3.33333 5H11.6667V3.33333H3.33333V5V5M1.66667 15C1.20833 15 0.815972 14.8368 0.489583 14.5104C0.163194 14.184 0 13.7917 0 13.3333V1.66667C0 1.20833 0.163194 0.815972 0.489583 0.489583C0.815972 0.163194 1.20833 0 1.66667 0H13.3333C13.7917 0 14.184 0.163194 14.5104 0.489583C14.8368 0.815972 15 1.20833 15 1.66667V13.3333C15 13.7917 14.8368 14.184 14.5104 14.5104C14.184 14.8368 13.7917 15 13.3333 15H1.66667V15M1.66667 13.3333H13.3333V13.3333V13.3333V1.66667V1.66667V1.66667H1.66667V1.66667V1.66667V13.3333V13.3333V13.3333V13.3333M1.66667 1.66667V1.66667V1.66667V1.66667V13.3333V13.3333V13.3333V13.3333V13.3333V13.3333V1.66667V1.66667V1.66667V1.66667" fill="var(--fill-0, #00DBE9)"/>
</g>
</svg>
