<svg preserveAspectRatio="none" width="100%" height="100%" overflow="visible" style="display: block;" viewBox="0 0 38 31" fill="none" xmlns="http://www.w3.org/2000/svg">
<g id="Overlay">
<rect width="38" height="31" rx="2" fill="var(--fill-0, #22D3EE)" fill-opacity="0.1"/>
<path id="Icon" d="M19 20C20.25 20 21.3125 19.5625 22.1875 18.6875C23.0625 17.8125 23.5 16.75 23.5 15.5C23.5 14.25 23.0625 13.1875 22.1875 12.3125C21.3125 11.4375 20.25 11 19 11C17.75 11 16.6875 11.4375 15.8125 12.3125C14.9375 13.1875 14.5 14.25 14.5 15.5C14.5 16.75 14.9375 17.8125 15.8125 18.6875C16.6875 19.5625 17.75 20 19 20V20M19 18.2C18.25 18.2 17.6125 17.9375 17.0875 17.4125C16.5625 16.8875 16.3 16.25 16.3 15.5C16.3 14.75 16.5625 14.1125 17.0875 13.5875C17.6125 13.0625 18.25 12.8 19 12.8C19.75 12.8 20.3875 13.0625 20.9125 13.5875C21.4375 14.1125 21.7 14.75 21.7 15.5C21.7 16.25 21.4375 16.8875 20.9125 17.4125C20.3875 17.9375 19.75 18.2 19 18.2V18.2M19 23C16.5667 23 14.35 22.3208 12.35 20.9625C10.35 19.6042 8.9 17.7833 8 15.5C8.9 13.2167 10.35 11.3958 12.35 10.0375C14.35 8.67917 16.5667 8 19 8C21.4333 8 23.65 8.67917 25.65 10.0375C27.65 11.3958 29.1 13.2167 30 15.5C29.1 17.7833 27.65 19.6042 25.65 20.9625C23.65 22.3208 21.4333 23 19 23V23M19 15.5V15.5V15.5V15.5V15.5V15.5V15.5V15.5V15.5V15.5M19 21C20.8833 21 22.6125 20.5042 24.1875 19.5125C25.7625 18.5208 26.9667 17.1833 27.8 15.5C26.9667 13.8167 25.7625 12.4792 24.1875 11.4875C22.6125 10.4958 20.8833 10 19 10C17.1167 10 15.3875 10.4958 13.8125 11.4875C12.2375 12.4792 11.0333 13.8167 10.2 15.5C11.0333 17.1833 12.2375 18.5208 13.8125 19.5125C15.3875 20.5042 17.1167 21 19 21V21" fill="var(--fill-0, #22D3EE)"/>
</g>
</svg>
