<svg preserveAspectRatio="none" width="100%" height="100%" overflow="visible" style="display: block;" viewBox="0 0 15 16.6667" fill="none" xmlns="http://www.w3.org/2000/svg">
<g id="Container">
<path id="Icon" d="M6.66667 14.5208V8.8125L1.66667 5.91667V11.625V11.625V11.625L6.66667 14.5208V14.5208M8.33333 14.5208L13.3333 11.625V11.625V11.625V5.91667L8.33333 8.8125V14.5208V14.5208M7.5 7.375L12.4375 4.52083L7.5 1.66667V1.66667V1.66667L2.5625 4.52083L7.5 7.375V7.375M0.833333 13.0833C0.569444 12.9306 0.364583 12.7292 0.21875 12.4792C0.0729167 12.2292 0 11.9514 0 11.6458V5.02083C0 4.71528 0.0729167 4.4375 0.21875 4.1875C0.364583 3.9375 0.569444 3.73611 0.833333 3.58333L6.66667 0.229167C6.93056 0.0763889 7.20833 0 7.5 0C7.79167 0 8.06944 0.0763889 8.33333 0.229167L14.1667 3.58333C14.4306 3.73611 14.6354 3.9375 14.7812 4.1875C14.9271 4.4375 15 4.71528 15 5.02083V11.6458C15 11.9514 14.9271 12.2292 14.7812 12.4792C14.6354 12.7292 14.4306 12.9306 14.1667 13.0833L8.33333 16.4375C8.06944 16.5903 7.79167 16.6667 7.5 16.6667C7.20833 16.6667 6.93056 16.5903 6.66667 16.4375L0.833333 13.0833V13.0833M7.5 8.33333V8.33333V8.33333V8.33333V8.33333V8.33333V8.33333V8.33333V8.33333V8.33333V8.33333V8.33333V8.33333V8.33333V8.33333V8.33333V8.33333V8.33333V8.33333V8.33333" fill="var(--fill-0, #D2BBFF)"/>
</g>
</svg>
