<svg preserveAspectRatio="none" width="100%" height="100%" overflow="visible" style="display: block;" viewBox="0 0 19 16" fill="none" xmlns="http://www.w3.org/2000/svg">
  <path fill-rule="evenodd" clip-rule="evenodd" d="M1.5 1.5H17.5C17.7761 1.5 18 1.72386 18 2V14C18 14.2761 17.7761 14.5 17.5 14.5H1.5C1.22386 14.5 1 14.2761 1 14V2C1 1.72386 1.22386 1.5 1.5 1.5ZM0 2C0 1.17157 0.671573 0.5 1.5 0.5H17.5C18.3284 0.5 19 1.17157 19 2V14C19 14.8284 18.3284 15.5 17.5 15.5H1.5C0.671573 15.5 0 14.8284 0 14V2ZM6 4C5.44772 4 5 4.44772 5 5C5 5.55228 5.44772 6 6 6C6.55228 6 7 5.55228 7 5C7 4.44772 6.55228 4 6 4ZM4 5C4 3.89543 4.89543 3 6 3C7.10457 3 8 3.89543 8 5C8 6.10457 7.10457 7 6 7C4.89543 7 4 6.10457 4 5ZM1.14645 12.8536L5.5 8.5L8.5 11.5L12.5 8.5L17.8536 12.8536L17.1464 13.1464L12.5 9.5L8.5 12.5L5.5 9.5L1.85355 13.1464L1.14645 12.8536Z" fill="var(--fill-0, #22D3EE)"/>
</svg>
