<svg preserveAspectRatio="none" width="100%" height="100%" overflow="visible" style="display: block;" viewBox="0 0 13.3333 17.3333" fill="none" xmlns="http://www.w3.org/2000/svg">
<g id="Margin">
<path id="Icon" d="M5.73333 13.7333L10.4333 9.03333L9.5 8.1L5.73333 11.8667L3.83333 9.96667L2.9 10.9L5.73333 13.7333V13.7333M6.66667 17.3333C5.74444 17.3333 4.87778 17.1583 4.06667 16.8083C3.25556 16.4583 2.55 15.9833 1.95 15.3833C1.35 14.7833 0.875 14.0778 0.525 13.2667C0.175 12.4556 0 11.5889 0 10.6667C0 9.74444 0.175 8.87778 0.525 8.06667C0.875 7.25556 1.35 6.55 1.95 5.95C2.55 5.35 3.25556 4.875 4.06667 4.525C4.87778 4.175 5.74444 4 6.66667 4C7.58889 4 8.45556 4.175 9.26667 4.525C10.0778 4.875 10.7833 5.35 11.3833 5.95C11.9833 6.55 12.4583 7.25556 12.8083 8.06667C13.1583 8.87778 13.3333 9.74444 13.3333 10.6667C13.3333 11.5889 13.1583 12.4556 12.8083 13.2667C12.4583 14.0778 11.9833 14.7833 11.3833 15.3833C10.7833 15.9833 10.0778 16.4583 9.26667 16.8083C8.45556 17.1583 7.58889 17.3333 6.66667 17.3333V17.3333M6.66667 16C8.15556 16 9.41667 15.4833 10.45 14.45C11.4833 13.4167 12 12.1556 12 10.6667C12 9.17778 11.4833 7.91667 10.45 6.88333C9.41667 5.85 8.15556 5.33333 6.66667 5.33333C5.17778 5.33333 3.91667 5.85 2.88333 6.88333C1.85 7.91667 1.33333 9.17778 1.33333 10.6667C1.33333 12.1556 1.85 13.4167 2.88333 14.45C3.91667 15.4833 5.17778 16 6.66667 16V16M6.66667 10.6667V10.6667V10.6667V10.6667V10.6667V10.6667V10.6667V10.6667V10.6667V10.6667" fill="var(--fill-0, #4EDEA3)"/>
</g>
</svg>
