<svg preserveAspectRatio="none" width="100%" height="100%" overflow="visible" style="display: block;" viewBox="0 0 16 20" fill="none" xmlns="http://www.w3.org/2000/svg">
<g id="Container">
<path id="Icon" d="M8 12C8.55 12 9.02083 11.8042 9.4125 11.4125C9.80417 11.0208 10 10.55 10 10C10 9.45 9.80417 8.97917 9.4125 8.5875C9.02083 8.19583 8.55 8 8 8C7.45 8 6.97917 8.19583 6.5875 8.5875C6.19583 8.97917 6 9.45 6 10C6 10.55 6.19583 11.0208 6.5875 11.4125C6.97917 11.8042 7.45 12 8 12V12M4 16H12V15.425C12 15.025 11.8917 14.6583 11.675 14.325C11.4583 13.9917 11.1583 13.7417 10.775 13.575C10.3417 13.3917 9.89583 13.25 9.4375 13.15C8.97917 13.05 8.5 13 8 13C7.5 13 7.02083 13.05 6.5625 13.15C6.10417 13.25 5.65833 13.3917 5.225 13.575C4.84167 13.7417 4.54167 13.9917 4.325 14.325C4.10833 14.6583 4 15.025 4 15.425V16V16M14 20H2C1.45 20 0.979167 19.8042 0.5875 19.4125C0.195833 19.0208 0 18.55 0 18V2C0 1.45 0.195833 0.979167 0.5875 0.5875C0.979167 0.195833 1.45 0 2 0H10L16 6V18C16 18.55 15.8042 19.0208 15.4125 19.4125C15.0208 19.8042 14.55 20 14 20V20M14 18V18V18V6.85L9.15 2H2V2V2V18V18V18H14V18M2 18V18V18V18V2V2V2V2V6.85V18V18V18V18" fill="var(--fill-0, #00DBE9)"/>
</g>
</svg>
