<svg preserveAspectRatio="none" width="100%" height="100%" overflow="visible" style="display: block;" viewBox="0 0 13.3333 6.66667" fill="none" xmlns="http://www.w3.org/2000/svg">
<g id="Container">
<path id="Icon" d="M6 6.66667H3.33333C2.41111 6.66667 1.625 6.34167 0.975 5.69167C0.325 5.04167 0 4.25556 0 3.33333C0 2.41111 0.325 1.625 0.975 0.975C1.625 0.325 2.41111 0 3.33333 0H6V1.33333H3.33333C2.77778 1.33333 2.30556 1.52778 1.91667 1.91667C1.52778 2.30556 1.33333 2.77778 1.33333 3.33333C1.33333 3.88889 1.52778 4.36111 1.91667 4.75C2.30556 5.13889 2.77778 5.33333 3.33333 5.33333H6V6.66667V6.66667M4 4V2.66667H9.33333V4H4V4M7.33333 6.66667V5.33333H10C10.5556 5.33333 11.0278 5.13889 11.4167 4.75C11.8056 4.36111 12 3.88889 12 3.33333C12 2.77778 11.8056 2.30556 11.4167 1.91667C11.0278 1.52778 10.5556 1.33333 10 1.33333H7.33333V0H10C10.9222 0 11.7083 0.325 12.3583 0.975C13.0083 1.625 13.3333 2.41111 13.3333 3.33333C13.3333 4.25556 13.0083 5.04167 12.3583 5.69167C11.7083 6.34167 10.9222 6.66667 10 6.66667H7.33333V6.66667" fill="var(--fill-0, #00DBE9)"/>
</g>
</svg>
